<svg viewBox="120 0 56 50" fill="#633194" xmlns="http://www.w3.org/2000/svg">
  <path d="M135.718657,22.555473 C137.232527,24.8797973 137.995194,27.5406081 138.233907,29.3453378 L140.997983,29.3453378 C140.766688,27.1399324 139.877922,23.909527 138.018795,21.0520946 C135.806995,17.6541216 132.926933,15.8561486 129.690826,15.8541216 L129.67127,15.8541216 C127.203225,15.8541216 124.892972,16.9656081 123.331899,18.9041216 C121.69193,20.9419595 121.070872,23.5777703 121.627868,26.1358784 L124.310351,25.5480405 C123.936098,23.8352027 124.369692,21.9966892 125.468849,20.6311486 C126.522152,19.3250676 128.01242,18.605473 129.671945,18.605473 L129.686106,18.605473 C132.549309,18.6075 134.547347,20.7541216 135.718657,22.555473" />
  <path d="M155.671528,41.8274324 C154.597321,40.3375676 153.81375,38.5531081 153.467819,36.8368919 L150.678118,36.8368919 C150.892555,38.1767568 151.461015,40.3895946 152.958026,42.7233784 C152.020034,44.297027 150.335559,45.8504054 148.556003,46.7794595 C148.554654,46.7787838 148.55398,46.7787838 148.552631,46.7781081 C148.551957,46.7787838 148.550608,46.7787838 148.549934,46.7794595 C146.768356,45.8504054 145.085229,44.297027 144.147237,42.7233784 C145.644248,40.3895946 146.212034,38.1767568 146.42647,36.8368919 L143.636769,36.8368919 C143.291513,38.5531081 142.507942,40.3375676 141.433735,41.8274324 L140.966425,42.4767568 L141.299543,43.2058108 C142.465459,45.7537838 145.156708,48.3085135 147.996984,49.5632432 L148.548585,49.8078378 L148.552631,49.8071622 L148.556003,49.8078378 L149.107605,49.5632432 C151.94788,48.3085135 154.63913,45.7537838 155.805045,43.2058108 L156.138164,42.4767568 L155.671528,41.8274324 Z" />
  <path d="M161.385864,22.555473 C159.871994,24.8797973 159.109327,27.5406081 158.871289,29.3453378 L156.107212,29.3453378 C156.338507,27.1399324 157.226599,23.909527 159.0864,21.0520946 C161.297526,17.6541216 164.177588,15.8561486 167.413695,15.8541216 L167.433925,15.8541216 C169.901297,15.8541216 172.210875,16.9656081 173.771948,18.9041216 C175.412592,20.9419595 176.033649,23.5777703 175.475979,26.1358784 L172.79417,25.5480405 C173.167749,23.8352027 172.734829,21.9966892 171.636346,20.6311486 C170.582369,19.3250676 169.092101,18.605473 167.432576,18.605473 L167.418415,18.605473 C164.555212,18.6075 162.557848,20.7541216 161.385864,22.555473" />
  <path d="M143.754642,29.3452703 L146.519393,29.3452703 C146.174136,26.1540541 144.924604,23.3736486 143.817355,20.9108108 C142.711454,18.4533784 141.668267,16.1310811 141.683102,13.8175676 C141.706029,11.1567568 143.219899,8.44459459 145.733799,6.55878378 C146.174136,6.22635135 147.426366,5.26283784 148.552497,4.2277027 C149.677278,5.26283784 150.930182,6.22635135 151.37052,6.55878378 C153.88442,8.44459459 155.398964,11.1567568 155.421891,13.8175676 C155.436052,16.1310811 154.392864,18.4533784 153.287638,20.9108108 C152.179715,23.3736486 150.930857,26.1540541 150.5856,29.3452703 L153.349677,29.3452703 C153.691562,26.7101351 154.758351,24.3391892 155.790749,22.0405405 C157.022749,19.302027 158.185293,16.7148649 158.167761,13.7966216 C158.136067,10.2797297 156.211531,6.7527027 153.017232,4.35878378 C152.640956,4.07297297 150.682029,2.57702703 149.556573,1.36216216 L148.552497,0.277027027 L147.549094,1.36216216 C146.42229,2.57702703 144.463362,4.07297297 144.086412,4.35878378 C140.894136,6.7527027 138.968926,10.2797297 138.937232,13.7966216 C138.919025,16.7148649 140.082244,19.302027 141.312895,22.0405405 C142.346642,24.3391892 143.412757,26.7101351 143.754642,29.3452703" />
  <polygon points="132.870559 34.4094595 164.234299 34.4094595 164.234299 31.7722973 132.870559 31.7722973" />
</svg>